<?xml version="1.0" encoding="utf-8"?>
<!-- Generator: Adobe Illustrator 21.0.2, SVG Export Plug-In . SVG Version: 6.00 Build 0)  -->
<svg version="1.1" id="Layer_1" xmlns="http://www.w3.org/2000/svg" xmlns:xlink="http://www.w3.org/1999/xlink" x="0px" y="0px"
	 viewBox="0 0 46.7 22.3" style="enable-background:new 0 0 46.7 22.3;" xml:space="preserve">
<style type="text/css">
	.st0{fill-rule:evenodd;clip-rule:evenodd;fill:url(#SVGID_1_);stroke:url(#SVGID_2_);stroke-miterlimit:10;}
	.st1{fill:#2E368F;}
	.st2{font-family:'Courier';}
	.st3{font-size:7.8432px;}
	.st4{fill:#0D71BA;}
	.st5{fill:#93288D;}
	.st6{fill:#ED1F79;}
	.st7{fill:#EC2027;}
	.st8{fill:#FAED23;}
	.st9{fill:#8DC640;}
	.st10{fill:#3BB54A;}
	.st11{fill:none;stroke:#FFFFFF;stroke-width:0.15;stroke-miterlimit:10;}
</style>
<symbol  id="Grime_Vector_Pack_08" viewBox="-90 -80.7 98.6 88.5">
	<linearGradient id="SVGID_1_" gradientUnits="userSpaceOnUse" x1="-88.9922" y1="-36.5908" x2="7.8333" y2="-36.5908">
		<stop  offset="0" style="stop-color:#00A8DE"/>
		<stop  offset="0.2" style="stop-color:#333391"/>
		<stop  offset="0.4" style="stop-color:#E91388"/>
		<stop  offset="0.6" style="stop-color:#EB2D2E"/>
		<stop  offset="0.8" style="stop-color:#FDE92B"/>
		<stop  offset="1" style="stop-color:#009E54"/>
	</linearGradient>
	<linearGradient id="SVGID_2_" gradientUnits="userSpaceOnUse" x1="-89.9528" y1="-36.5176" x2="8.6955" y2="-36.5176">
		<stop  offset="0" style="stop-color:#006C80"/>
		<stop  offset="0.2" style="stop-color:#2D245B"/>
		<stop  offset="0.4" style="stop-color:#882857"/>
		<stop  offset="0.6" style="stop-color:#8D2B24"/>
		<stop  offset="0.8" style="stop-color:#8F9037"/>
		<stop  offset="1" style="stop-color:#00653A"/>
	</linearGradient>
	<path class="st0" d="M-55.4,2.8c1.3,0.3,0.5,2.6,0.7,3.9c-0.5,0-0.8,0.2-1.1,0.4C-56.4,6.4-57.4,2.8-55.4,2.8z M7.8,0
		C5.6,0.8,5.1,3.8,6.1,6C5,6.2,5.3,4.9,3.9,5.3C2.1,8.2-2.9,6.2-5.2,6.4c-0.7-1.9-1.6-3.6-3.5-4.2c1.2-1.6,0.7-3.3-0.4-4.9
		c1.8-0.9,1.9-3.5,3.2-4.9c1.2,0.7,3.2-0.8,4.6-1.1c3.3,0.3,4.8,2.5,7.8,3.2C5.7-2.9,6.3-1.7,7.8,0z M-81.2-18
		c-0.5,1.1-1.8,1.3-2.8,1.8c-0.2-1.4,0.3-2.3,0.7-3.2C-82-19.6-81.3-19.2-81.2-18z M-65.3-19.1c0.1,2.9-3.7,3.9-3.2,0
		C-67.9-20-65.9-20-65.3-19.1z M-89-42.1c0.2-1.7,2.6-2.7,4.2-1.8C-85-41.4-87.4-40.3-89-42.1z M-89-73.9c1.3,0.2,1.9,0.9,2.5,1.8
		C-87.8-72.3-88.5-73-89-73.9z M-23.6-9.2c-1.5-0.7-1.8-1.6-3.9-1.1c0.1,1.2,1,2.7-1.1,2.5c-0.7-2.7-1-6.1-4.6-6.7
		c-0.1-1.1,0.4-2.7-0.7-2.8c-2.1,1.2-5.2,1.3-7.4,2.5c-1-1.3-1.8-2.7-3.9-2.8c-1.8,0.9-1.7,3.7-4.2,3.9c-0.8-0.3-1.4-0.7-1.4-1.8
		c0.4-1.7,2.6-1.6,2.8-3.5c-1.9-1-1.5-4.3-3.5-5.3c-5.4,3.1-12.6,3-17.7,1.4c-0.6-3.8-5.4-1.1-6.7-3.9c-1.5,1.1-3.9,6.5-4.6,3.9
		c2-0.3,4-3.8,3.9-5.7c-0.1-1.9-1.9-2.3-2.5-3.9c-1.1-3,0-5.8-0.4-8.5c-0.5-0.5-1.7-0.2-2.1-0.7c0.2-1.6,1.2-2.3,1.4-3.9
		c-1.4-1.7-2.5-3.6-4.2-4.9c0.8-1,1.8-1.7,2.1-3.2c-2-2.8-0.3-7.4,1.8-9.2c-0.3-0.9-1-1.4-1.1-2.5c1.8-0.8,3.9-1.3,4.2-3.5
		c0-1.1-1.9-1.5-1.1-2.5c2.4,0,5.6,0,4.6-4.2c2.2,0.7,4.5,1.6,5.3-1.1c-0.2-0.9-1.7-2.3-1.1-2.8c1,2,4.1,1.5,5.3,0
		c1,0.5,1.2,1.9,2.8,1.8c1.9,0.3,1.9-1.4,3.2-1.8c1.3,0,1.3,1.3,2.8,1.1c1.2-0.1,0.7-1.9,2.1-1.8c0.5,1.3,0.4,3.2,2.5,2.8
		c1-0.4,0.2-2.6,2.1-2.1v3.2c1.1-0.1,1.2,0.9,2.5,0.7c1.5,0.1,1.2-1.6,2.8-1.4c0.6,0.6-0.3,1.5,0,2.8c1.8,1,3.8,2.1,6.4,1.4
		c1,1.5,0.3,2.7,0.7,4.6c1.7,2.2,5.4,2.4,6.4,5.3c-1.2-0.1-1.3,0.8-2.1,1.1c-0.9,3.5,2.2,3,2.8,4.9c-0.4,0.8-1.7,0.6-2.1,1.4
		c0,1.7-0.2,3.5,1.1,3.9c0.9,0,2-0.1,2.5,0.4c0.7,1.3-0.1,1.3-0.4,2.5c1.4,0.3,2.8,0.7,4.2,1.1c0,1.5,1.4,1.4,1.1,3.2
		c-1.8,1.3-3.8,0.3-6-0.4c-0.4,0.7-1.6,0.6-1.4,1.8c2.1,1.5-0.3,3.1-0.7,3.9c-0.5,1.2-1.1,4.2-1.1,5.3c0.2,5.6,5.3,4.6,9.2,2.1
		c1.7,1.8,4.7,3.5,7.1,3.5c0.8,3.1,3.6,5.1,2.8,9.9c-0.2,1.4-1.6,2-1.4,3.2c0.4,2.3,3,2,3.2,3.9c-1.4-0.8-2.4-2.1-4.2-2.5
		C-18.2-12.2-19-8.8-23.6-9.2z M-35.3-33.9c-0.8,2.7,3.8,3,3.5,6.4c0.4,0.1,0.6-0.1,0.7-0.4C-30.9-30.1-33.5-32.5-35.3-33.9z
		 M-9.8-11c0.6,0.7,2.7,1.8,2.1,2.5C-8.3-9.2-10.4-10.3-9.8-11z"/>
</symbol>
<g>
	<text transform="matrix(1.04 0 0 1 4.8477 17.7132)"><tspan x="0" y="0" class="st1 st2 st3">M</tspan><tspan x="4.7" y="0" class="st4 st2 st3">e</tspan><tspan x="9.5" y="0" class="st5 st2 st3">t</tspan><tspan x="14.2" y="0" class="st6 st2 st3">a</tspan><tspan x="19" y="0" class="st7 st2 st3">n</tspan><tspan x="23.7" y="0" class="st8 st2 st3">o</tspan><tspan x="28.5" y="0" class="st9 st2 st3">i</tspan><tspan x="33.2" y="0" class="st10 st2 st3">a</tspan></text>
	
		<use xlink:href="#Grime_Vector_Pack_08"  width="98.6" height="88.5" id="XMLID_1_" x="-90" y="-80.7" transform="matrix(3.888308e-02 0.1378 0.1378 -3.888308e-02 36.3682 12.6921)" style="overflow:visible;"/>
	<path class="st11" d="M29.2,8.6c0,0-0.2,0-0.5,0c-0.3-0.1-1.7-1.7-1.1,0c-0.6-1.7-0.7-1.7-1.3,0c0.6-1.7-0.7-0.1-1.1,0
		c-0.3,0-0.5,0-0.5,0s0-0.2,0-0.5c0-0.3,1.2-1,0-1.2c1.2-0.2,0-0.8,0-1.2c0-0.3,0-0.5,0-0.5s0.2,0,0.5,0c0.3,0.1,1.7,1.7,1.1,0
		c0.6,1.7,0.7,1.7,1.3,0c-0.6,1.7,0.7,0.1,1.1,0c0.3,0,0.5,0,0.5,0s0,0.2,0,0.5c0,0.3-1.2,1,0,1.2c-1.2,0.2,0,0.8,0,1.2
		C29.2,8.4,29.2,8.6,29.2,8.6z"/>
</g>
</svg>
